<?xml version="1.0" encoding="UTF-8"?> <svg xmlns="http://www.w3.org/2000/svg" width="1136" height="44" viewBox="0 0 1136 44" fill="none"><path d="M1009.21 0.245682C1009.19 0.245682 1009.17 0.251735 1009.15 0.262328L997.579 6.92354C997.552 6.94018 997.544 6.96591 997.56 6.98709C997.573 7.00677 997.605 7.02038 997.647 7.0219H997.639C997.639 7.0219 997.647 7.02341 997.652 7.02341L997.66 7.0219H997.665L1124.33 7.02341C1124.36 7.02341 1124.39 7.01736 1124.41 7.00676V7.00525L1135.97 0.344042C1136 0.327396 1136.01 0.303184 1135.99 0.281999C1135.98 0.259301 1135.94 0.245682 1135.9 0.245682H1009.21ZM996.348 0H961.087C961.087 0 961.082 0 961.074 0C961.04 0 977.707 0.00756583 960.987 0.0211847L923.246 27.527L905.927 27.8917H603.437L602.799 27.527L571.19 9.31994C571.169 9.30481 571.13 9.29725 571.096 9.29725H173.1C173.066 9.29725 173.032 9.30481 173.008 9.31843L156.904 18.5945H11.7045C11.7019 18.5945 11.6966 18.5945 11.694 18.5945C11.6598 18.5945 11.6283 18.6021 11.602 18.6157L0.0377608 25.2784C0.000982441 25.2996 -0.00952628 25.3314 0.00886326 25.3586C0.0298797 25.3874 0.0771665 25.4055 0.127081 25.4055L557.905 25.404L590.152 43.9773C590.179 43.9924 590.205 44 590.239 44C590.247 44 590.252 43.9985 590.252 43.9985L920.218 44C920.252 44 936.985 43.9909 937.006 43.9773L996.442 0.127111C996.476 0.105925 996.49 0.0741477 996.469 0.0453963C996.45 0.0181585 996.403 0 996.348 0ZM10.7456 34.6407V37.2495H556.074L568.835 43.9773H574.713L557.95 34.6407H10.7456Z" fill="#8EF0F4"></path></svg> 