<?xml version="1.0" encoding="UTF-8"?> <svg xmlns="http://www.w3.org/2000/svg" width="92" height="72" viewBox="0 0 92 72" fill="none"><path d="M91 0.901855H1C0.586 0.901855 0.25 1.23786 0.25 1.65186V70.3479C0.25 70.7619 0.586 71.0979 1 71.0979H91C91.414 71.0979 91.75 70.7619 91.75 70.3479V1.65186C91.75 1.23786 91.414 0.901855 91 0.901855ZM90.25 2.40186V13.6219H1.75V2.40186H90.25ZM1.75 15.1219H90.25V69.5999H1.75V15.1219Z" fill="white"></path><path d="M83.1 11.0279L85.018 9.10986L86.936 11.0279L87.996 9.96685L86.078 8.04885L87.996 6.13086L86.936 5.07085L85.018 6.98886L83.1 5.07085L82.038 6.13086L83.956 8.04885L82.038 9.96685L83.1 11.0279Z" fill="white"></path><path d="M56.743 7.26085H5.37V8.76085H56.743V7.26085Z" fill="white"></path><path d="M70.152 25.0119H33.449V26.5119H70.152V25.0119Z" fill="white"></path><path d="M25.141 21.9069C22.912 21.9069 21.097 23.7199 21.097 25.9499C21.097 28.1799 22.911 29.9939 25.141 29.9939C27.371 29.9939 29.184 28.1799 29.184 25.9499C29.184 23.7199 27.37 21.9069 25.141 21.9069ZM25.141 28.4939C23.739 28.4939 22.597 27.3519 22.597 25.9499C22.597 24.5479 23.739 23.4069 25.141 23.4069C26.543 23.4069 27.684 24.5479 27.684 25.9499C27.684 27.3519 26.543 28.4939 25.141 28.4939Z" fill="white"></path><path d="M70.152 35.0619H33.449V36.5619H70.152V35.0619Z" fill="white"></path><path d="M25.141 31.9569C22.912 31.9569 21.097 33.7699 21.097 35.9999C21.097 38.2299 22.911 40.0439 25.141 40.0439C27.371 40.0439 29.184 38.2299 29.184 35.9999C29.184 33.7699 27.37 31.9569 25.141 31.9569ZM25.141 38.5429C23.739 38.5429 22.597 37.3999 22.597 35.9989C22.597 34.5969 23.739 33.4559 25.141 33.4559C26.543 33.4559 27.684 34.5969 27.684 35.9989C27.684 37.3999 26.543 38.5429 25.141 38.5429Z" fill="white"></path><path d="M70.152 45.1109H33.449V46.6109H70.152V45.1109Z" fill="white"></path><path d="M25.141 42.0049C22.912 42.0049 21.097 43.8179 21.097 46.0489C21.097 48.2799 22.911 50.0929 25.141 50.0929C27.371 50.0929 29.184 48.2799 29.184 46.0489C29.184 43.8179 27.37 42.0049 25.141 42.0049ZM25.141 48.5929C23.739 48.5929 22.597 47.4509 22.597 46.0489C22.597 44.6469 23.739 43.5049 25.141 43.5049C26.543 43.5049 27.684 44.6469 27.684 46.0489C27.684 47.4509 26.543 48.5929 25.141 48.5929Z" fill="white"></path><path d="M70.152 55.1619H33.449V56.6619H70.152V55.1619Z" fill="white"></path><path d="M25.141 52.0549C22.912 52.0549 21.097 53.8689 21.097 56.0999C21.097 58.3289 22.911 60.1429 25.141 60.1429C27.371 60.1429 29.184 58.3299 29.184 56.0999C29.184 53.8699 27.37 52.0549 25.141 52.0549ZM25.141 58.6429C23.739 58.6429 22.597 57.5009 22.597 56.0999C22.597 54.6989 23.739 53.5549 25.141 53.5549C26.543 53.5549 27.684 54.6989 27.684 56.0999C27.684 57.5009 26.543 58.6429 25.141 58.6429Z" fill="white"></path></svg> 